<svg xmlns="http://www.w3.org/2000/svg" viewBox="0 0 100 100" width="100%" height="100%">
      <!-- Ears -->
      <ellipse cx="20" cy="35" rx="10" ry="6" fill="#FFFFFF" stroke="#1A1A1A" stroke-width="4" transform="rotate(-20 20 35)"/>
      <ellipse cx="80" cy="35" rx="10" ry="6" fill="#FFFFFF" stroke="#1A1A1A" stroke-width="4" transform="rotate(20 80 35)"/>
      <!-- Horns -->
      <path d="M32,24 Q26,10 18,16" stroke="#1A1A1A" stroke-width="4" fill="none" stroke-linecap="round"/>
      <path d="M68,24 Q74,10 82,16" stroke="#1A1A1A" stroke-width="4" fill="none" stroke-linecap="round"/>
      <!-- Head -->
      <rect x="25" y="24" width="50" height="48" rx="20" fill="#FFFFFF" stroke="#1A1A1A" stroke-width="4"/>
      <!-- Spots -->
      <circle cx="34" cy="36" r="8" fill="#1A1A1A"/>
      <circle cx="66" cy="48" r="6" fill="#1A1A1A"/>
      <!-- Snout -->
      <rect x="28" y="52" width="44" height="24" rx="12" fill="#FF8BCD" stroke="#1A1A1A" stroke-width="4"/>
      <circle cx="42" cy="64" r="2.5" fill="#1A1A1A"/>
      <circle cx="58" cy="64" r="2.5" fill="#1A1A1A"/>
      <!-- Eyes -->
      <circle cx="40" cy="40" r="4.5" fill="#1A1A1A"/>
      <circle cx="41.5" cy="38.5" r="1.5" fill="#FFFFFF"/>
      <circle cx="60" cy="40" r="4.5" fill="#1A1A1A"/>
      <circle cx="61.5" cy="38.5" r="1.5" fill="#FFFFFF"/>
    </svg>