<svg xmlns="http://www.w3.org/2000/svg" viewBox="0 0 100 100" width="100%" height="100%">
      <!-- Lion Mane -->
      <circle cx="50" cy="50" r="42" fill="#FF9F29" stroke="#1A1A1A" stroke-width="4"/>
      <circle cx="28" cy="28" r="12" fill="#E87A15" stroke="#1A1A1A" stroke-width="4"/>
      <circle cx="72" cy="28" r="12" fill="#E87A15" stroke="#1A1A1A" stroke-width="4"/>
      <circle cx="28" cy="72" r="12" fill="#E87A15" stroke="#1A1A1A" stroke-width="4"/>
      <circle cx="72" cy="72" r="12" fill="#E87A15" stroke="#1A1A1A" stroke-width="4"/>
      <!-- Face -->
      <circle cx="50" cy="50" r="30" fill="#FFDE4D" stroke="#1A1A1A" stroke-width="4"/>
      <!-- Ears -->
      <circle cx="32" cy="24" r="8" fill="#FFDE4D" stroke="#1A1A1A" stroke-width="4"/>
      <circle cx="32" cy="24" r="4" fill="#FF6B6B" />
      <circle cx="68" cy="24" r="8" fill="#FFDE4D" stroke="#1A1A1A" stroke-width="4"/>
      <circle cx="68" cy="24" r="4" fill="#FF6B6B" />
      <!-- Eyes -->
      <circle cx="40" cy="45" r="4" fill="#1A1A1A"/>
      <circle cx="60" cy="45" r="4" fill="#1A1A1A"/>
      <!-- Nose/Snout -->
      <polygon points="50,56 44,50 56,50" fill="#FF6B6B" stroke="#1A1A1A" stroke-width="2"/>
      <path d="M50,56 Q47,62 44,60 M50,56 Q53,62 56,60" stroke="#1A1A1A" stroke-width="3" fill="none" stroke-linecap="round"/>
      <!-- Cheeks -->
      <circle cx="34" cy="54" r="3" fill="#FF8BCD" opacity="0.6"/>
      <circle cx="66" cy="54" r="3" fill="#FF8BCD" opacity="0.6"/>
    </svg>